<?xml version="1.0" encoding="utf-8"?>
<!-- Generator: Adobe Illustrator 24.1.0, SVG Export Plug-In . SVG Version: 6.00 Build 0)  -->
<svg version="1.1" id="Layer_1" xmlns="http://www.w3.org/2000/svg" xmlns:xlink="http://www.w3.org/1999/xlink" x="0px" y="0px"
	 viewBox="0 0 53.1 50.7" style="enable-background:new 0 0 53.1 50.7;" xml:space="preserve">
<style type="text/css">
	.st0{fill:#505050;}
</style>
<path class="st0" d="M12.1,50.7H0.7V16.5h11.4V50.7z M6.4,11.8L6.4,11.8C2.5,11.8,0,9.2,0,5.9C0,2.6,2.5,0,6.4,0s6.3,2.6,6.4,5.9
	C12.8,9.2,10.3,11.8,6.4,11.8z M53.1,50.7H41.7V32.4c0-4.6-1.6-7.7-5.8-7.7c-3.1,0-5,2.1-5.8,4.2c-0.3,0.7-0.4,1.8-0.4,2.8v19.1
	H18.4c0,0,0.1-31,0-34.2h11.4v4.9C31.3,19,34,15.7,40,15.7c7.5,0,13.1,4.9,13.1,15.4L53.1,50.7L53.1,50.7z"/>
</svg>
