<?xml version="1.0" encoding="utf-8"?>
<!-- Generator: Adobe Illustrator 24.1.0, SVG Export Plug-In . SVG Version: 6.00 Build 0)  -->
<svg version="1.1" id="Layer_1" xmlns="http://www.w3.org/2000/svg" xmlns:xlink="http://www.w3.org/1999/xlink" x="0px" y="0px"
	 viewBox="0 0 55 44.7" style="enable-background:new 0 0 55 44.7;" xml:space="preserve">
<style type="text/css">
	.st0{fill:#505050;}
</style>
<path class="st0" d="M49.4,11.1c0,0.5,0,1,0,1.5c0,14.9-11.4,32.1-32.1,32.1C10.9,44.7,5,42.9,0,39.7c0.9,0.1,1.8,0.2,2.7,0.2
	c5.3,0,10.2-1.8,14-4.8c-4.9-0.1-9.1-3.4-10.6-7.8c0.7,0.1,1.4,0.2,2.1,0.2c1,0,2-0.1,3-0.4c-5.2-1-9.1-5.6-9.1-11.1
	c0-0.1,0-0.1,0-0.1c1.5,0.8,3.3,1.3,5.1,1.4c-3-2-5-5.5-5-9.4c0-2.1,0.6-4,1.5-5.7c5.6,6.8,13.9,11.3,23.3,11.8
	c-0.2-0.8-0.3-1.7-0.3-2.6C26.8,5.1,31.9,0,38.1,0c3.2,0,6.2,1.4,8.2,3.6c2.6-0.5,5-1.5,7.2-2.7c-0.9,2.6-2.6,4.9-5,6.3
	C50.8,6.8,53,6.2,55,5.3C53.5,7.5,51.6,9.5,49.4,11.1z"/>
</svg>
